<?xml version="1.0" encoding="utf-8"?>
<!-- Generated by IcoMoon.io -->
<!DOCTYPE svg PUBLIC "-//W3C//DTD SVG 1.1//EN" "http://www.w3.org/Graphics/SVG/1.1/DTD/svg11.dtd">
<svg version="1.1" xmlns="http://www.w3.org/2000/svg" xmlns:xlink="http://www.w3.org/1999/xlink" width="3891" height="1024" viewBox="0 0 3891 1024">
<g id="icomoon-ignore">
</g>
<path fill="#393a39" d="M1134.592 759.808h-116.736l-247.808-614.4h116.736l188.416 458.752 188.416-458.752h116.736l-245.76 614.4z"></path>
<path fill="#393a39" d="M1437.696 198.656c-12.288-12.288-18.432-26.624-18.432-43.008s6.144-30.72 18.432-43.008c12.288-12.288 26.624-18.432 43.008-18.432s30.72 6.144 43.008 18.432c12.288 12.288 18.432 26.624 18.432 43.008s-6.144 30.72-18.432 43.008-26.624 18.432-43.008 18.432c-16.384 0-30.72-6.144-43.008-18.432zM1529.856 759.808h-98.304v-466.944h98.304v466.944z"></path>
<path fill="#393a39" d="M1900.544 284.672c63.488 0 116.736 22.528 161.792 65.536s67.584 100.352 67.584 174.080-22.528 131.072-65.536 176.128c-45.056 45.056-96.256 67.584-155.648 67.584s-112.64-26.624-159.744-77.824v241.664h-98.304v-638.976h98.304v81.92c36.864-59.392 88.064-90.112 151.552-90.112zM1744.896 528.384c0 45.056 14.336 81.92 40.96 108.544 26.624 28.672 59.392 43.008 98.304 43.008s71.68-14.336 100.352-43.008c28.672-28.672 43.008-65.536 43.008-108.544 0-45.056-14.336-81.92-43.008-112.64-28.672-28.672-61.44-45.056-100.352-45.056s-71.68 14.336-100.352 45.056c-24.576 30.72-38.912 67.584-38.912 112.64z"></path>
<path fill="#393a39" d="M2445.312 284.672c63.488 0 116.736 22.528 161.792 65.536s67.584 100.352 67.584 174.080-22.528 131.072-65.536 176.128c-45.056 45.056-96.256 67.584-155.648 67.584s-112.64-26.624-159.744-77.824v241.664h-98.304v-638.976h98.304v81.92c38.912-59.392 90.112-90.112 151.552-90.112zM2291.712 526.336c0 45.056 14.336 81.92 40.96 108.544 26.624 28.672 59.392 43.008 98.304 43.008s71.68-14.336 100.352-43.008 43.008-65.536 43.008-108.544c0-45.056-14.336-81.92-43.008-112.64-28.672-28.672-61.44-45.056-100.352-45.056s-71.68 14.336-100.352 45.056c-24.576 32.768-38.912 69.632-38.912 112.64z"></path>
<path fill="#87b702" d="M2883.584 362.496v237.568c0 22.528 6.144 40.96 18.432 53.248s28.672 20.48 49.152 20.48c20.48 0 40.96-10.24 61.44-30.72l40.96 69.632c-34.816 30.72-73.728 47.104-114.688 47.104s-77.824-14.336-106.496-43.008c-28.672-28.672-45.056-67.584-45.056-116.736v-237.568h-59.392v-79.872h59.392v-145.408h98.304v147.456h122.88v79.872h-124.928z"></path>
<path fill="#87b702" d="M3551.232 561.152h-366.592c2.048 34.816 18.432 61.44 47.104 81.92s61.44 30.72 98.304 30.72c59.392 0 102.4-18.432 133.12-55.296l55.296 61.44c-51.2 51.2-116.736 77.824-196.608 77.824-65.536 0-120.832-22.528-167.936-65.536-45.056-43.008-69.632-102.4-69.632-176.128s22.528-133.12 69.632-176.128c47.104-43.008 102.4-65.536 165.888-65.536s116.736 18.432 161.792 57.344c45.056 38.912 67.584 92.16 67.584 159.744v69.632zM3182.592 483.328h268.288c0-38.912-12.288-69.632-36.864-90.112s-55.296-30.72-90.112-30.72c-36.864 0-67.584 10.24-96.256 32.768-30.72 20.48-45.056 51.2-45.056 88.064z"></path>
<path fill="#87b702" d="M3880.96 376.832c-49.152 0-86.016 16.384-110.592 47.104s-36.864 73.728-36.864 126.976v200.704h-98.304v-466.944h98.304v94.208c16.384-28.672 36.864-53.248 65.536-71.68 26.624-18.432 55.296-28.672 86.016-28.672v100.352c-2.048-2.048-2.048-2.048-4.096-2.048z"></path>
<path fill="#87b702" d="M225.28 626.688l49.152-6.144c20.48-2.048 34.816-20.48 30.72-40.96l-26.624-186.368c-2.048-18.432-18.432-30.72-36.864-30.72-2.048 0-4.096 0-4.096 0l-49.152 6.144c-10.24 0-18.432 6.144-24.576 14.336-4.096 6.144-8.192 16.384-6.144 26.624l26.624 186.368c2.048 20.48 20.48 32.768 40.96 30.72z"></path>
<path fill="#87b702" d="M413.696 577.536c-2.048 0-2.048 0 0 0-12.288 0-20.48 4.096-26.624 12.288l-45.056 51.2c-6.144 8.192-10.24 16.384-10.24 26.624s4.096 18.432 12.288 24.576l163.84 147.456c8.192 6.144 16.384 10.24 26.624 10.24s18.432-4.096 24.576-12.288l45.056-51.2c14.336-14.336 12.288-38.912-2.048-51.2l-163.84-147.456c-8.192-6.144-16.384-10.24-24.576-10.24z"></path>
<path fill="#87b702" d="M153.6 630.784l-26.624-186.368c-2.048-18.432-18.432-30.72-36.864-30.72-2.048 0-4.096 0-4.096 0l-49.152 6.144c-20.48 2.048-34.816 20.48-30.72 40.96l26.624 186.368c2.048 20.48 20.48 34.816 40.96 30.72l49.152-6.144c20.48-2.048 32.768-20.48 30.72-40.96z"></path>
<path fill="#87b702" d="M608.256 34.816l-43.008-6.144c-26.624-4.096-51.2 16.384-55.296 43.008l-40.96 319.488-28.672-2.048-43.008-315.392c-4.096-30.72-32.768-51.2-61.44-47.104l-32.768 4.096c-30.72 4.096-51.2 32.768-47.104 61.44l38.912 286.72c2.048 4.096 2.048 6.144 2.048 10.24l26.624 186.368c4.096 30.72-16.384 59.392-47.104 63.488l-49.152 6.144c-2.048 0-6.144 0-8.192 0-20.48 0-38.912-12.288-49.152-28.672l2.048 10.24c4.096 30.72-16.384 59.392-47.104 63.488v0l-49.152 6.144c-2.048 0-6.144 0-8.192 0-8.192 0-18.432-2.048-26.624-6.144 4.096 45.056 10.24 108.544 14.336 135.168 12.288 94.208 221.184 169.984 221.184 169.984s34.816-163.84 204.8-153.6l-153.6-137.216c-10.24-10.24-18.432-24.576-18.432-38.912s4.096-28.672 14.336-40.96l45.056-51.2c10.24-10.24 24.576-18.432 38.912-18.432s28.672 4.096 40.96 14.336l137.216 122.88 24.576-294.912 38.912-309.248c6.144-24.576-14.336-49.152-40.96-53.248z"></path>
</svg>
